<svg width="56" height="32" viewBox="0 0 56 32" fill="none" xmlns="http://www.w3.org/2000/svg">
<rect x="0.25" y="0.25" width="55.5" height="31.5" rx="7.75" fill="white"/>
<rect x="0.25" y="0.25" width="55.5" height="31.5" rx="7.75" stroke="#F0F0F0" stroke-width="0.5"/>
<path d="M18.03 16.42C18.39 21.57 22.76 25.76 27.99 25.99C31.68 26.15 34.98 24.43 36.96 21.72C37.78 20.61 37.34 19.87 35.97 20.12C35.3 20.24 34.61 20.29 33.89 20.26C29 20.06 25 15.97 24.98 11.14C24.97 9.84002 25.24 8.61002 25.73 7.49002C26.27 6.25002 25.62 5.66002 24.37 6.19002C20.41 7.86002 17.7 11.85 18.03 16.42Z" stroke="#0E3A99" stroke-width="1.5" stroke-linecap="round" stroke-linejoin="round"/>
</svg>
