<svg width="24" height="21" viewBox="0 0 24 21" fill="none" xmlns="http://www.w3.org/2000/svg">
<path d="M11 16.75C11 17.1642 11.3358 17.5 11.75 17.5C12.1642 17.5 12.5 17.1642 12.5 16.75H11.75H11ZM11.75 11.75H12.5C12.5 11.5511 12.421 11.3603 12.2803 11.2197L11.75 11.75ZM8.25 8.25L7.75612 7.68557C7.5999 7.82226 7.50732 8.01758 7.50042 8.22504C7.49351 8.4325 7.57289 8.63355 7.71967 8.78033L8.25 8.25ZM12.25 4.75L12.8194 4.26191C12.6891 4.10987 12.5034 4.01626 12.3037 4.00193C12.104 3.98759 11.9068 4.05371 11.7561 4.18557L12.25 4.75ZM18.25 9.5C18.6642 9.5 19 9.16421 19 8.75C19 8.33579 18.6642 8 18.25 8V8.75V9.5ZM8.75 15.75H8C8 17.5449 6.54493 19 4.75 19V19.75V20.5C7.37335 20.5 9.5 18.3734 9.5 15.75H8.75ZM4.75 19.75V19C2.95507 19 1.5 17.5449 1.5 15.75H0.75H0C0 18.3734 2.12665 20.5 4.75 20.5V19.75ZM0.75 15.75H1.5C1.5 13.9551 2.95507 12.5 4.75 12.5V11.75V11C2.12665 11 0 13.1266 0 15.75H0.75ZM4.75 11.75V12.5C6.54493 12.5 8 13.9551 8 15.75H8.75H9.5C9.5 13.1266 7.37335 11 4.75 11V11.75ZM11.75 16.75H12.5V11.75H11.75H11V16.75H11.75ZM11.75 11.75L12.2803 11.2197L8.78033 7.71967L8.25 8.25L7.71967 8.78033L11.2197 12.2803L11.75 11.75ZM8.25 8.25L8.74388 8.81443L12.7439 5.31443L12.25 4.75L11.7561 4.18557L7.75612 7.68557L8.25 8.25ZM12.25 4.75L11.6806 5.23809C12.1908 5.8334 13.1274 6.87601 14.2584 7.7747C15.3626 8.65209 16.7839 9.5 18.25 9.5V8.75V8C17.3161 8 16.2374 7.43124 15.1916 6.6003C14.1726 5.79066 13.3092 4.83326 12.8194 4.26191L12.25 4.75ZM22.75 15.75H22C22 17.5449 20.5449 19 18.75 19V19.75V20.5C21.3734 20.5 23.5 18.3734 23.5 15.75H22.75ZM18.75 19.75V19C16.9551 19 15.5 17.5449 15.5 15.75H14.75H14C14 18.3734 16.1266 20.5 18.75 20.5V19.75ZM14.75 15.75H15.5C15.5 13.9551 16.9551 12.5 18.75 12.5V11.75V11C16.1266 11 14 13.1266 14 15.75H14.75ZM18.75 11.75V12.5C20.5449 12.5 22 13.9551 22 15.75H22.75H23.5C23.5 13.1266 21.3734 11 18.75 11V11.75ZM16.75 1.75H16C16 1.88807 15.8881 2 15.75 2V2.75V3.5C16.7165 3.5 17.5 2.7165 17.5 1.75H16.75ZM15.75 2.75V2C15.6119 2 15.5 1.88807 15.5 1.75H14.75H14C14 2.7165 14.7835 3.5 15.75 3.5V2.75ZM14.75 1.75H15.5C15.5 1.61193 15.6119 1.5 15.75 1.5V0.75V0C14.7835 0 14 0.783502 14 1.75H14.75ZM15.75 0.75V1.5C15.8881 1.5 16 1.61193 16 1.75H16.75H17.5C17.5 0.783502 16.7165 0 15.75 0V0.75Z" fill="#0E3A99"/>
</svg>
